<mxfile host="Electron" agent="Mozilla/5.0 (Windows NT 10.0; Win64; x64) AppleWebKit/537.36 (KHTML, like Gecko) draw.io/28.1.2 Chrome/138.0.7204.243 Electron/37.4.0 Safari/537.36" version="28.1.2">
  <diagram name="Page-1" id="xdn6Z6KSBt-Gp4CqZe9T">
    <mxGraphModel dx="1665" dy="849" grid="1" gridSize="10" guides="1" tooltips="1" connect="1" arrows="1" fold="1" page="1" pageScale="1" pageWidth="827" pageHeight="1169" math="0" shadow="0">
      <root>
        <mxCell id="0" />
        <mxCell id="1" parent="0" />
        <mxCell id="Y6cidYwezNrs-eOszlJ7-1" value="User" style="swimlane;fontStyle=0;childLayout=stackLayout;horizontal=1;startSize=26;fillColor=none;horizontalStack=0;resizeParent=1;resizeParentMax=0;resizeLast=0;collapsible=1;marginBottom=0;whiteSpace=wrap;html=1;" vertex="1" parent="1">
          <mxGeometry x="100" y="290" width="140" height="156" as="geometry" />
        </mxCell>
        <mxCell id="Y6cidYwezNrs-eOszlJ7-2" value="+ id : int" style="text;strokeColor=none;fillColor=none;align=left;verticalAlign=top;spacingLeft=4;spacingRight=4;overflow=hidden;rotatable=0;points=[[0,0.5],[1,0.5]];portConstraint=eastwest;whiteSpace=wrap;html=1;" vertex="1" parent="Y6cidYwezNrs-eOszlJ7-1">
          <mxGeometry y="26" width="140" height="26" as="geometry" />
        </mxCell>
        <mxCell id="Y6cidYwezNrs-eOszlJ7-3" value="+ username : string" style="text;strokeColor=none;fillColor=none;align=left;verticalAlign=top;spacingLeft=4;spacingRight=4;overflow=hidden;rotatable=0;points=[[0,0.5],[1,0.5]];portConstraint=eastwest;whiteSpace=wrap;html=1;" vertex="1" parent="Y6cidYwezNrs-eOszlJ7-1">
          <mxGeometry y="52" width="140" height="26" as="geometry" />
        </mxCell>
        <mxCell id="Y6cidYwezNrs-eOszlJ7-55" value="+ email : string" style="text;strokeColor=none;fillColor=none;align=left;verticalAlign=top;spacingLeft=4;spacingRight=4;overflow=hidden;rotatable=0;points=[[0,0.5],[1,0.5]];portConstraint=eastwest;whiteSpace=wrap;html=1;" vertex="1" parent="Y6cidYwezNrs-eOszlJ7-1">
          <mxGeometry y="78" width="140" height="26" as="geometry" />
        </mxCell>
        <mxCell id="Y6cidYwezNrs-eOszlJ7-56" value="+ password : string" style="text;strokeColor=none;fillColor=none;align=left;verticalAlign=top;spacingLeft=4;spacingRight=4;overflow=hidden;rotatable=0;points=[[0,0.5],[1,0.5]];portConstraint=eastwest;whiteSpace=wrap;html=1;" vertex="1" parent="Y6cidYwezNrs-eOszlJ7-1">
          <mxGeometry y="104" width="140" height="26" as="geometry" />
        </mxCell>
        <mxCell id="Y6cidYwezNrs-eOszlJ7-4" value="+ role : UserRole" style="text;strokeColor=none;fillColor=none;align=left;verticalAlign=top;spacingLeft=4;spacingRight=4;overflow=hidden;rotatable=0;points=[[0,0.5],[1,0.5]];portConstraint=eastwest;whiteSpace=wrap;html=1;" vertex="1" parent="Y6cidYwezNrs-eOszlJ7-1">
          <mxGeometry y="130" width="140" height="26" as="geometry" />
        </mxCell>
        <mxCell id="Y6cidYwezNrs-eOszlJ7-5" value="UserRole&lt;div&gt;&amp;lt;&amp;lt;enum&amp;gt;&amp;gt;&lt;/div&gt;" style="swimlane;fontStyle=0;childLayout=stackLayout;horizontal=1;startSize=40;fillColor=none;horizontalStack=0;resizeParent=1;resizeParentMax=0;resizeLast=0;collapsible=1;marginBottom=0;whiteSpace=wrap;html=1;" vertex="1" parent="1">
          <mxGeometry x="50" y="150" width="140" height="90" as="geometry" />
        </mxCell>
        <mxCell id="Y6cidYwezNrs-eOszlJ7-7" value="Admin" style="text;strokeColor=none;fillColor=none;align=left;verticalAlign=top;spacingLeft=4;spacingRight=4;overflow=hidden;rotatable=0;points=[[0,0.5],[1,0.5]];portConstraint=eastwest;whiteSpace=wrap;html=1;" vertex="1" parent="Y6cidYwezNrs-eOszlJ7-5">
          <mxGeometry y="40" width="140" height="26" as="geometry" />
        </mxCell>
        <mxCell id="Y6cidYwezNrs-eOszlJ7-8" value="User" style="text;strokeColor=none;fillColor=none;align=left;verticalAlign=top;spacingLeft=4;spacingRight=4;overflow=hidden;rotatable=0;points=[[0,0.5],[1,0.5]];portConstraint=eastwest;whiteSpace=wrap;html=1;" vertex="1" parent="Y6cidYwezNrs-eOszlJ7-5">
          <mxGeometry y="66" width="140" height="24" as="geometry" />
        </mxCell>
        <mxCell id="Y6cidYwezNrs-eOszlJ7-10" style="edgeStyle=orthogonalEdgeStyle;rounded=0;orthogonalLoop=1;jettySize=auto;html=1;entryX=1;entryY=0.25;entryDx=0;entryDy=0;exitX=1;exitY=0.5;exitDx=0;exitDy=0;" edge="1" parent="1" source="Y6cidYwezNrs-eOszlJ7-4" target="Y6cidYwezNrs-eOszlJ7-5">
          <mxGeometry relative="1" as="geometry">
            <mxPoint x="60" y="410" as="sourcePoint" />
            <Array as="points">
              <mxPoint x="260" y="381" />
              <mxPoint x="260" y="173" />
            </Array>
          </mxGeometry>
        </mxCell>
        <mxCell id="Y6cidYwezNrs-eOszlJ7-11" value="Tournament" style="swimlane;fontStyle=0;childLayout=stackLayout;horizontal=1;startSize=26;fillColor=none;horizontalStack=0;resizeParent=1;resizeParentMax=0;resizeLast=0;collapsible=1;marginBottom=0;whiteSpace=wrap;html=1;" vertex="1" parent="1">
          <mxGeometry x="520" y="130" width="140" height="182" as="geometry" />
        </mxCell>
        <mxCell id="Y6cidYwezNrs-eOszlJ7-12" value="+ id : int" style="text;strokeColor=none;fillColor=none;align=left;verticalAlign=top;spacingLeft=4;spacingRight=4;overflow=hidden;rotatable=0;points=[[0,0.5],[1,0.5]];portConstraint=eastwest;whiteSpace=wrap;html=1;" vertex="1" parent="Y6cidYwezNrs-eOszlJ7-11">
          <mxGeometry y="26" width="140" height="26" as="geometry" />
        </mxCell>
        <mxCell id="Y6cidYwezNrs-eOszlJ7-13" value="+ name : string" style="text;strokeColor=none;fillColor=none;align=left;verticalAlign=top;spacingLeft=4;spacingRight=4;overflow=hidden;rotatable=0;points=[[0,0.5],[1,0.5]];portConstraint=eastwest;whiteSpace=wrap;html=1;" vertex="1" parent="Y6cidYwezNrs-eOszlJ7-11">
          <mxGeometry y="52" width="140" height="26" as="geometry" />
        </mxCell>
        <mxCell id="Y6cidYwezNrs-eOszlJ7-14" value="+ locality : string" style="text;strokeColor=none;fillColor=none;align=left;verticalAlign=top;spacingLeft=4;spacingRight=4;overflow=hidden;rotatable=0;points=[[0,0.5],[1,0.5]];portConstraint=eastwest;whiteSpace=wrap;html=1;" vertex="1" parent="Y6cidYwezNrs-eOszlJ7-11">
          <mxGeometry y="78" width="140" height="26" as="geometry" />
        </mxCell>
        <mxCell id="Y6cidYwezNrs-eOszlJ7-20" value="+ nbMinTeam : int (4)" style="text;strokeColor=none;fillColor=none;align=left;verticalAlign=top;spacingLeft=4;spacingRight=4;overflow=hidden;rotatable=0;points=[[0,0.5],[1,0.5]];portConstraint=eastwest;whiteSpace=wrap;html=1;" vertex="1" parent="Y6cidYwezNrs-eOszlJ7-11">
          <mxGeometry y="104" width="140" height="26" as="geometry" />
        </mxCell>
        <mxCell id="Y6cidYwezNrs-eOszlJ7-21" value="+ nbMaxTeam : int (16)" style="text;strokeColor=none;fillColor=none;align=left;verticalAlign=top;spacingLeft=4;spacingRight=4;overflow=hidden;rotatable=0;points=[[0,0.5],[1,0.5]];portConstraint=eastwest;whiteSpace=wrap;html=1;" vertex="1" parent="Y6cidYwezNrs-eOszlJ7-11">
          <mxGeometry y="130" width="140" height="26" as="geometry" />
        </mxCell>
        <mxCell id="Y6cidYwezNrs-eOszlJ7-45" value="+ date : Date" style="text;strokeColor=none;fillColor=none;align=left;verticalAlign=top;spacingLeft=4;spacingRight=4;overflow=hidden;rotatable=0;points=[[0,0.5],[1,0.5]];portConstraint=eastwest;whiteSpace=wrap;html=1;" vertex="1" parent="Y6cidYwezNrs-eOszlJ7-11">
          <mxGeometry y="156" width="140" height="26" as="geometry" />
        </mxCell>
        <mxCell id="Y6cidYwezNrs-eOszlJ7-15" value="Match" style="swimlane;fontStyle=0;childLayout=stackLayout;horizontal=1;startSize=26;fillColor=none;horizontalStack=0;resizeParent=1;resizeParentMax=0;resizeLast=0;collapsible=1;marginBottom=0;whiteSpace=wrap;html=1;" vertex="1" parent="1">
          <mxGeometry x="620" y="330" width="160" height="182" as="geometry" />
        </mxCell>
        <mxCell id="Y6cidYwezNrs-eOszlJ7-16" value="+ id : int" style="text;strokeColor=none;fillColor=none;align=left;verticalAlign=top;spacingLeft=4;spacingRight=4;overflow=hidden;rotatable=0;points=[[0,0.5],[1,0.5]];portConstraint=eastwest;whiteSpace=wrap;html=1;" vertex="1" parent="Y6cidYwezNrs-eOszlJ7-15">
          <mxGeometry y="26" width="160" height="26" as="geometry" />
        </mxCell>
        <mxCell id="Y6cidYwezNrs-eOszlJ7-17" value="+ idTournament : int (FK)" style="text;strokeColor=none;fillColor=none;align=left;verticalAlign=top;spacingLeft=4;spacingRight=4;overflow=hidden;rotatable=0;points=[[0,0.5],[1,0.5]];portConstraint=eastwest;whiteSpace=wrap;html=1;" vertex="1" parent="Y6cidYwezNrs-eOszlJ7-15">
          <mxGeometry y="52" width="160" height="26" as="geometry" />
        </mxCell>
        <mxCell id="Y6cidYwezNrs-eOszlJ7-18" value="+ idTeam1 : int" style="text;strokeColor=none;fillColor=none;align=left;verticalAlign=top;spacingLeft=4;spacingRight=4;overflow=hidden;rotatable=0;points=[[0,0.5],[1,0.5]];portConstraint=eastwest;whiteSpace=wrap;html=1;" vertex="1" parent="Y6cidYwezNrs-eOszlJ7-15">
          <mxGeometry y="78" width="160" height="26" as="geometry" />
        </mxCell>
        <mxCell id="Y6cidYwezNrs-eOszlJ7-52" style="edgeStyle=orthogonalEdgeStyle;rounded=0;orthogonalLoop=1;jettySize=auto;html=1;exitX=0;exitY=0.5;exitDx=0;exitDy=0;" edge="1" parent="Y6cidYwezNrs-eOszlJ7-15" source="Y6cidYwezNrs-eOszlJ7-29">
          <mxGeometry relative="1" as="geometry">
            <mxPoint x="-40" y="117" as="targetPoint" />
          </mxGeometry>
        </mxCell>
        <mxCell id="Y6cidYwezNrs-eOszlJ7-29" value="+ idTeam2 : int" style="text;strokeColor=none;fillColor=none;align=left;verticalAlign=top;spacingLeft=4;spacingRight=4;overflow=hidden;rotatable=0;points=[[0,0.5],[1,0.5]];portConstraint=eastwest;whiteSpace=wrap;html=1;" vertex="1" parent="Y6cidYwezNrs-eOszlJ7-15">
          <mxGeometry y="104" width="160" height="26" as="geometry" />
        </mxCell>
        <mxCell id="Y6cidYwezNrs-eOszlJ7-53" value="+ scoreTeam1 : int" style="text;strokeColor=none;fillColor=none;align=left;verticalAlign=top;spacingLeft=4;spacingRight=4;overflow=hidden;rotatable=0;points=[[0,0.5],[1,0.5]];portConstraint=eastwest;whiteSpace=wrap;html=1;" vertex="1" parent="Y6cidYwezNrs-eOszlJ7-15">
          <mxGeometry y="130" width="160" height="26" as="geometry" />
        </mxCell>
        <mxCell id="Y6cidYwezNrs-eOszlJ7-54" value="+ scoreTeam2 : int" style="text;strokeColor=none;fillColor=none;align=left;verticalAlign=top;spacingLeft=4;spacingRight=4;overflow=hidden;rotatable=0;points=[[0,0.5],[1,0.5]];portConstraint=eastwest;whiteSpace=wrap;html=1;" vertex="1" parent="Y6cidYwezNrs-eOszlJ7-15">
          <mxGeometry y="156" width="160" height="26" as="geometry" />
        </mxCell>
        <mxCell id="Y6cidYwezNrs-eOszlJ7-19" style="edgeStyle=orthogonalEdgeStyle;rounded=0;orthogonalLoop=1;jettySize=auto;html=1;entryX=1;entryY=0.5;entryDx=0;entryDy=0;exitX=1;exitY=0.5;exitDx=0;exitDy=0;" edge="1" parent="1" source="Y6cidYwezNrs-eOszlJ7-17" target="Y6cidYwezNrs-eOszlJ7-12">
          <mxGeometry relative="1" as="geometry" />
        </mxCell>
        <mxCell id="Y6cidYwezNrs-eOszlJ7-23" value="4 - 8 - 12 - 16&lt;div&gt;équipe pour faire un tournoi&lt;/div&gt;" style="html=1;whiteSpace=wrap;" vertex="1" parent="1">
          <mxGeometry x="680" y="70" width="110" height="50" as="geometry" />
        </mxCell>
        <mxCell id="Y6cidYwezNrs-eOszlJ7-24" style="edgeStyle=orthogonalEdgeStyle;rounded=0;orthogonalLoop=1;jettySize=auto;html=1;entryX=0.829;entryY=-0.019;entryDx=0;entryDy=0;entryPerimeter=0;" edge="1" parent="1" source="Y6cidYwezNrs-eOszlJ7-23" target="Y6cidYwezNrs-eOszlJ7-11">
          <mxGeometry relative="1" as="geometry" />
        </mxCell>
        <mxCell id="Y6cidYwezNrs-eOszlJ7-25" value="Team" style="swimlane;fontStyle=0;childLayout=stackLayout;horizontal=1;startSize=26;fillColor=none;horizontalStack=0;resizeParent=1;resizeParentMax=0;resizeLast=0;collapsible=1;marginBottom=0;whiteSpace=wrap;html=1;" vertex="1" parent="1">
          <mxGeometry x="70" y="470" width="140" height="130" as="geometry" />
        </mxCell>
        <mxCell id="Y6cidYwezNrs-eOszlJ7-26" value="+ id : int" style="text;strokeColor=none;fillColor=none;align=left;verticalAlign=top;spacingLeft=4;spacingRight=4;overflow=hidden;rotatable=0;points=[[0,0.5],[1,0.5]];portConstraint=eastwest;whiteSpace=wrap;html=1;" vertex="1" parent="Y6cidYwezNrs-eOszlJ7-25">
          <mxGeometry y="26" width="140" height="26" as="geometry" />
        </mxCell>
        <mxCell id="Y6cidYwezNrs-eOszlJ7-27" value="+ nom : string" style="text;strokeColor=none;fillColor=none;align=left;verticalAlign=top;spacingLeft=4;spacingRight=4;overflow=hidden;rotatable=0;points=[[0,0.5],[1,0.5]];portConstraint=eastwest;whiteSpace=wrap;html=1;" vertex="1" parent="Y6cidYwezNrs-eOszlJ7-25">
          <mxGeometry y="52" width="140" height="26" as="geometry" />
        </mxCell>
        <mxCell id="Y6cidYwezNrs-eOszlJ7-46" value="+ idUser1 : int (FK)" style="text;strokeColor=none;fillColor=none;align=left;verticalAlign=top;spacingLeft=4;spacingRight=4;overflow=hidden;rotatable=0;points=[[0,0.5],[1,0.5]];portConstraint=eastwest;whiteSpace=wrap;html=1;" vertex="1" parent="Y6cidYwezNrs-eOszlJ7-25">
          <mxGeometry y="78" width="140" height="26" as="geometry" />
        </mxCell>
        <mxCell id="Y6cidYwezNrs-eOszlJ7-50" style="edgeStyle=orthogonalEdgeStyle;rounded=0;orthogonalLoop=1;jettySize=auto;html=1;" edge="1" parent="Y6cidYwezNrs-eOszlJ7-25" source="Y6cidYwezNrs-eOszlJ7-47">
          <mxGeometry relative="1" as="geometry">
            <mxPoint x="-30" y="90" as="targetPoint" />
          </mxGeometry>
        </mxCell>
        <mxCell id="Y6cidYwezNrs-eOszlJ7-47" value="+ idUser2 : int (FK)" style="text;strokeColor=none;fillColor=none;align=left;verticalAlign=top;spacingLeft=4;spacingRight=4;overflow=hidden;rotatable=0;points=[[0,0.5],[1,0.5]];portConstraint=eastwest;whiteSpace=wrap;html=1;" vertex="1" parent="Y6cidYwezNrs-eOszlJ7-25">
          <mxGeometry y="104" width="140" height="26" as="geometry" />
        </mxCell>
        <mxCell id="Y6cidYwezNrs-eOszlJ7-33" value="Tournament_Team" style="swimlane;fontStyle=0;childLayout=stackLayout;horizontal=1;startSize=26;fillColor=none;horizontalStack=0;resizeParent=1;resizeParentMax=0;resizeLast=0;collapsible=1;marginBottom=0;whiteSpace=wrap;html=1;" vertex="1" parent="1">
          <mxGeometry x="280" y="390" width="190" height="130" as="geometry" />
        </mxCell>
        <mxCell id="Y6cidYwezNrs-eOszlJ7-38" value="+ id: int (PK)" style="text;strokeColor=none;fillColor=none;align=left;verticalAlign=top;spacingLeft=4;spacingRight=4;overflow=hidden;rotatable=0;points=[[0,0.5],[1,0.5]];portConstraint=eastwest;whiteSpace=wrap;html=1;" vertex="1" parent="Y6cidYwezNrs-eOszlJ7-33">
          <mxGeometry y="26" width="190" height="26" as="geometry" />
        </mxCell>
        <mxCell id="Y6cidYwezNrs-eOszlJ7-35" value="+ idTournament : int (FK)" style="text;strokeColor=none;fillColor=none;align=left;verticalAlign=top;spacingLeft=4;spacingRight=4;overflow=hidden;rotatable=0;points=[[0,0.5],[1,0.5]];portConstraint=eastwest;whiteSpace=wrap;html=1;" vertex="1" parent="Y6cidYwezNrs-eOszlJ7-33">
          <mxGeometry y="52" width="190" height="26" as="geometry" />
        </mxCell>
        <mxCell id="Y6cidYwezNrs-eOszlJ7-34" value="+ idTeam : int (FK)" style="text;strokeColor=none;fillColor=none;align=left;verticalAlign=top;spacingLeft=4;spacingRight=4;overflow=hidden;rotatable=0;points=[[0,0.5],[1,0.5]];portConstraint=eastwest;whiteSpace=wrap;html=1;" vertex="1" parent="Y6cidYwezNrs-eOszlJ7-33">
          <mxGeometry y="78" width="190" height="26" as="geometry" />
        </mxCell>
        <mxCell id="Y6cidYwezNrs-eOszlJ7-36" value="+ date_tournament : Date" style="text;strokeColor=none;fillColor=none;align=left;verticalAlign=top;spacingLeft=4;spacingRight=4;overflow=hidden;rotatable=0;points=[[0,0.5],[1,0.5]];portConstraint=eastwest;whiteSpace=wrap;html=1;" vertex="1" parent="Y6cidYwezNrs-eOszlJ7-33">
          <mxGeometry y="104" width="190" height="26" as="geometry" />
        </mxCell>
        <mxCell id="Y6cidYwezNrs-eOszlJ7-39" value="UNIQUE (idTournament, idTeam)" style="html=1;whiteSpace=wrap;" vertex="1" parent="1">
          <mxGeometry x="280" y="300" width="180" height="50" as="geometry" />
        </mxCell>
        <mxCell id="Y6cidYwezNrs-eOszlJ7-40" style="edgeStyle=orthogonalEdgeStyle;rounded=0;orthogonalLoop=1;jettySize=auto;html=1;entryX=0.5;entryY=0;entryDx=0;entryDy=0;" edge="1" parent="1" source="Y6cidYwezNrs-eOszlJ7-39" target="Y6cidYwezNrs-eOszlJ7-33">
          <mxGeometry relative="1" as="geometry">
            <Array as="points">
              <mxPoint x="375" y="350" />
              <mxPoint x="375" y="350" />
            </Array>
          </mxGeometry>
        </mxCell>
        <mxCell id="Y6cidYwezNrs-eOszlJ7-42" style="edgeStyle=orthogonalEdgeStyle;rounded=0;orthogonalLoop=1;jettySize=auto;html=1;entryX=1;entryY=0.5;entryDx=0;entryDy=0;" edge="1" parent="1" source="Y6cidYwezNrs-eOszlJ7-34" target="Y6cidYwezNrs-eOszlJ7-26">
          <mxGeometry relative="1" as="geometry" />
        </mxCell>
        <mxCell id="Y6cidYwezNrs-eOszlJ7-43" style="edgeStyle=orthogonalEdgeStyle;rounded=0;orthogonalLoop=1;jettySize=auto;html=1;entryX=0;entryY=0.5;entryDx=0;entryDy=0;" edge="1" parent="1" source="Y6cidYwezNrs-eOszlJ7-35" target="Y6cidYwezNrs-eOszlJ7-12">
          <mxGeometry relative="1" as="geometry" />
        </mxCell>
        <mxCell id="Y6cidYwezNrs-eOszlJ7-49" style="edgeStyle=orthogonalEdgeStyle;rounded=0;orthogonalLoop=1;jettySize=auto;html=1;entryX=0;entryY=0.5;entryDx=0;entryDy=0;" edge="1" parent="1" source="Y6cidYwezNrs-eOszlJ7-46" target="Y6cidYwezNrs-eOszlJ7-2">
          <mxGeometry relative="1" as="geometry">
            <Array as="points">
              <mxPoint x="40" y="561" />
              <mxPoint x="40" y="329" />
            </Array>
          </mxGeometry>
        </mxCell>
        <mxCell id="Y6cidYwezNrs-eOszlJ7-51" style="edgeStyle=orthogonalEdgeStyle;rounded=0;orthogonalLoop=1;jettySize=auto;html=1;entryX=1.021;entryY=0.846;entryDx=0;entryDy=0;entryPerimeter=0;exitX=0;exitY=0.5;exitDx=0;exitDy=0;" edge="1" parent="1" source="Y6cidYwezNrs-eOszlJ7-18" target="Y6cidYwezNrs-eOszlJ7-26">
          <mxGeometry relative="1" as="geometry">
            <Array as="points">
              <mxPoint x="580" y="421" />
              <mxPoint x="580" y="560" />
              <mxPoint x="260" y="560" />
              <mxPoint x="260" y="518" />
            </Array>
          </mxGeometry>
        </mxCell>
        <mxCell id="Y6cidYwezNrs-eOszlJ7-57" value="Service A" style="swimlane;fontStyle=0;childLayout=stackLayout;horizontal=1;startSize=26;fillColor=none;horizontalStack=0;resizeParent=1;resizeParentMax=0;resizeLast=0;collapsible=1;marginBottom=0;whiteSpace=wrap;html=1;" vertex="1" parent="1">
          <mxGeometry x="100" y="840" width="140" height="52" as="geometry" />
        </mxCell>
        <mxCell id="Y6cidYwezNrs-eOszlJ7-58" value="+ UserRepository" style="text;strokeColor=none;fillColor=none;align=left;verticalAlign=top;spacingLeft=4;spacingRight=4;overflow=hidden;rotatable=0;points=[[0,0.5],[1,0.5]];portConstraint=eastwest;whiteSpace=wrap;html=1;" vertex="1" parent="Y6cidYwezNrs-eOszlJ7-57">
          <mxGeometry y="26" width="140" height="26" as="geometry" />
        </mxCell>
        <mxCell id="Y6cidYwezNrs-eOszlJ7-61" value="Service B" style="swimlane;fontStyle=0;childLayout=stackLayout;horizontal=1;startSize=26;fillColor=none;horizontalStack=0;resizeParent=1;resizeParentMax=0;resizeLast=0;collapsible=1;marginBottom=0;whiteSpace=wrap;html=1;" vertex="1" parent="1">
          <mxGeometry x="330" y="860" width="140" height="52" as="geometry" />
        </mxCell>
        <mxCell id="Y6cidYwezNrs-eOszlJ7-62" value="+ UserRepository" style="text;strokeColor=none;fillColor=none;align=left;verticalAlign=top;spacingLeft=4;spacingRight=4;overflow=hidden;rotatable=0;points=[[0,0.5],[1,0.5]];portConstraint=eastwest;whiteSpace=wrap;html=1;" vertex="1" parent="Y6cidYwezNrs-eOszlJ7-61">
          <mxGeometry y="26" width="140" height="26" as="geometry" />
        </mxCell>
        <mxCell id="Y6cidYwezNrs-eOszlJ7-63" value="Service C" style="swimlane;fontStyle=0;childLayout=stackLayout;horizontal=1;startSize=26;fillColor=none;horizontalStack=0;resizeParent=1;resizeParentMax=0;resizeLast=0;collapsible=1;marginBottom=0;whiteSpace=wrap;html=1;" vertex="1" parent="1">
          <mxGeometry x="570" y="860" width="140" height="52" as="geometry" />
        </mxCell>
        <mxCell id="Y6cidYwezNrs-eOszlJ7-64" value="+ UserRepository" style="text;strokeColor=none;fillColor=none;align=left;verticalAlign=top;spacingLeft=4;spacingRight=4;overflow=hidden;rotatable=0;points=[[0,0.5],[1,0.5]];portConstraint=eastwest;whiteSpace=wrap;html=1;" vertex="1" parent="Y6cidYwezNrs-eOszlJ7-63">
          <mxGeometry y="26" width="140" height="26" as="geometry" />
        </mxCell>
        <mxCell id="Y6cidYwezNrs-eOszlJ7-69" value="UserRepository" style="swimlane;fontStyle=0;childLayout=stackLayout;horizontal=1;startSize=26;fillColor=none;horizontalStack=0;resizeParent=1;resizeParentMax=0;resizeLast=0;collapsible=1;marginBottom=0;whiteSpace=wrap;html=1;" vertex="1" parent="1">
          <mxGeometry x="630" y="630" width="140" height="48" as="geometry" />
        </mxCell>
        <mxCell id="Y6cidYwezNrs-eOszlJ7-70" value="-&lt;span style=&quot;background-color: transparent; color: light-dark(rgb(0, 0, 0), rgb(255, 255, 255));&quot;&gt;&amp;nbsp;_connectionString&lt;/span&gt;" style="text;strokeColor=none;fillColor=none;align=left;verticalAlign=top;spacingLeft=4;spacingRight=4;overflow=hidden;rotatable=0;points=[[0,0.5],[1,0.5]];portConstraint=eastwest;whiteSpace=wrap;html=1;" vertex="1" parent="Y6cidYwezNrs-eOszlJ7-69">
          <mxGeometry y="26" width="140" height="22" as="geometry" />
        </mxCell>
        <mxCell id="Y6cidYwezNrs-eOszlJ7-73" style="edgeStyle=orthogonalEdgeStyle;rounded=0;orthogonalLoop=1;jettySize=auto;html=1;entryX=0;entryY=0.5;entryDx=0;entryDy=0;" edge="1" parent="1" source="Y6cidYwezNrs-eOszlJ7-71" target="Y6cidYwezNrs-eOszlJ7-69">
          <mxGeometry relative="1" as="geometry" />
        </mxCell>
        <mxCell id="Y6cidYwezNrs-eOszlJ7-80" style="edgeStyle=orthogonalEdgeStyle;rounded=0;orthogonalLoop=1;jettySize=auto;html=1;" edge="1" parent="1" source="Y6cidYwezNrs-eOszlJ7-71" target="Y6cidYwezNrs-eOszlJ7-76">
          <mxGeometry relative="1" as="geometry" />
        </mxCell>
        <mxCell id="Y6cidYwezNrs-eOszlJ7-83" value="add scoped (create instance)" style="edgeLabel;html=1;align=center;verticalAlign=middle;resizable=0;points=[];" vertex="1" connectable="0" parent="Y6cidYwezNrs-eOszlJ7-80">
          <mxGeometry x="-0.2222" relative="1" as="geometry">
            <mxPoint as="offset" />
          </mxGeometry>
        </mxCell>
        <mxCell id="Y6cidYwezNrs-eOszlJ7-81" value="add scoped (create instance)" style="edgeStyle=orthogonalEdgeStyle;rounded=0;orthogonalLoop=1;jettySize=auto;html=1;entryX=0.5;entryY=0;entryDx=0;entryDy=0;" edge="1" parent="1" source="Y6cidYwezNrs-eOszlJ7-71" target="Y6cidYwezNrs-eOszlJ7-74">
          <mxGeometry relative="1" as="geometry" />
        </mxCell>
        <mxCell id="Y6cidYwezNrs-eOszlJ7-82" style="edgeStyle=orthogonalEdgeStyle;rounded=0;orthogonalLoop=1;jettySize=auto;html=1;exitX=1;exitY=1;exitDx=0;exitDy=0;entryX=0;entryY=0;entryDx=0;entryDy=0;" edge="1" parent="1" source="Y6cidYwezNrs-eOszlJ7-71" target="Y6cidYwezNrs-eOszlJ7-78">
          <mxGeometry relative="1" as="geometry">
            <Array as="points">
              <mxPoint x="520" y="714" />
              <mxPoint x="660" y="714" />
              <mxPoint x="660" y="750" />
            </Array>
          </mxGeometry>
        </mxCell>
        <mxCell id="Y6cidYwezNrs-eOszlJ7-84" value="add scoped (create instance)" style="edgeLabel;html=1;align=center;verticalAlign=middle;resizable=0;points=[];" vertex="1" connectable="0" parent="Y6cidYwezNrs-eOszlJ7-82">
          <mxGeometry x="0.2881" relative="1" as="geometry">
            <mxPoint as="offset" />
          </mxGeometry>
        </mxCell>
        <mxCell id="Y6cidYwezNrs-eOszlJ7-71" value="WebApi" style="swimlane;fontStyle=0;childLayout=stackLayout;horizontal=1;startSize=26;fillColor=none;horizontalStack=0;resizeParent=1;resizeParentMax=0;resizeLast=0;collapsible=1;marginBottom=0;whiteSpace=wrap;html=1;" vertex="1" parent="1">
          <mxGeometry x="380" y="630" width="140" height="48" as="geometry" />
        </mxCell>
        <mxCell id="Y6cidYwezNrs-eOszlJ7-74" value="UserRepository" style="swimlane;fontStyle=0;childLayout=stackLayout;horizontal=1;startSize=26;fillColor=none;horizontalStack=0;resizeParent=1;resizeParentMax=0;resizeLast=0;collapsible=1;marginBottom=0;whiteSpace=wrap;html=1;" vertex="1" parent="1">
          <mxGeometry x="130" y="710" width="140" height="48" as="geometry" />
        </mxCell>
        <mxCell id="Y6cidYwezNrs-eOszlJ7-75" value="-&lt;span style=&quot;background-color: transparent; color: light-dark(rgb(0, 0, 0), rgb(255, 255, 255));&quot;&gt;&amp;nbsp;_connectionString&lt;/span&gt;" style="text;strokeColor=none;fillColor=none;align=left;verticalAlign=top;spacingLeft=4;spacingRight=4;overflow=hidden;rotatable=0;points=[[0,0.5],[1,0.5]];portConstraint=eastwest;whiteSpace=wrap;html=1;" vertex="1" parent="Y6cidYwezNrs-eOszlJ7-74">
          <mxGeometry y="26" width="140" height="22" as="geometry" />
        </mxCell>
        <mxCell id="Y6cidYwezNrs-eOszlJ7-86" style="edgeStyle=orthogonalEdgeStyle;rounded=0;orthogonalLoop=1;jettySize=auto;html=1;entryX=0.5;entryY=0;entryDx=0;entryDy=0;" edge="1" parent="1" source="Y6cidYwezNrs-eOszlJ7-76" target="Y6cidYwezNrs-eOszlJ7-61">
          <mxGeometry relative="1" as="geometry" />
        </mxCell>
        <mxCell id="Y6cidYwezNrs-eOszlJ7-76" value="UserRepository" style="swimlane;fontStyle=0;childLayout=stackLayout;horizontal=1;startSize=26;fillColor=none;horizontalStack=0;resizeParent=1;resizeParentMax=0;resizeLast=0;collapsible=1;marginBottom=0;whiteSpace=wrap;html=1;" vertex="1" parent="1">
          <mxGeometry x="320" y="758" width="140" height="48" as="geometry" />
        </mxCell>
        <mxCell id="Y6cidYwezNrs-eOszlJ7-77" value="-&lt;span style=&quot;background-color: transparent; color: light-dark(rgb(0, 0, 0), rgb(255, 255, 255));&quot;&gt;&amp;nbsp;_connectionString&lt;/span&gt;" style="text;strokeColor=none;fillColor=none;align=left;verticalAlign=top;spacingLeft=4;spacingRight=4;overflow=hidden;rotatable=0;points=[[0,0.5],[1,0.5]];portConstraint=eastwest;whiteSpace=wrap;html=1;" vertex="1" parent="Y6cidYwezNrs-eOszlJ7-76">
          <mxGeometry y="26" width="140" height="22" as="geometry" />
        </mxCell>
        <mxCell id="Y6cidYwezNrs-eOszlJ7-87" style="edgeStyle=orthogonalEdgeStyle;rounded=0;orthogonalLoop=1;jettySize=auto;html=1;entryX=0.5;entryY=0;entryDx=0;entryDy=0;" edge="1" parent="1" source="Y6cidYwezNrs-eOszlJ7-78" target="Y6cidYwezNrs-eOszlJ7-63">
          <mxGeometry relative="1" as="geometry" />
        </mxCell>
        <mxCell id="Y6cidYwezNrs-eOszlJ7-78" value="UserRepository" style="swimlane;fontStyle=0;childLayout=stackLayout;horizontal=1;startSize=26;fillColor=none;horizontalStack=0;resizeParent=1;resizeParentMax=0;resizeLast=0;collapsible=1;marginBottom=0;whiteSpace=wrap;html=1;" vertex="1" parent="1">
          <mxGeometry x="590" y="750" width="140" height="48" as="geometry" />
        </mxCell>
        <mxCell id="Y6cidYwezNrs-eOszlJ7-79" value="-&lt;span style=&quot;background-color: transparent; color: light-dark(rgb(0, 0, 0), rgb(255, 255, 255));&quot;&gt;&amp;nbsp;_connectionString&lt;/span&gt;" style="text;strokeColor=none;fillColor=none;align=left;verticalAlign=top;spacingLeft=4;spacingRight=4;overflow=hidden;rotatable=0;points=[[0,0.5],[1,0.5]];portConstraint=eastwest;whiteSpace=wrap;html=1;" vertex="1" parent="Y6cidYwezNrs-eOszlJ7-78">
          <mxGeometry y="26" width="140" height="22" as="geometry" />
        </mxCell>
        <mxCell id="Y6cidYwezNrs-eOszlJ7-85" style="edgeStyle=orthogonalEdgeStyle;rounded=0;orthogonalLoop=1;jettySize=auto;html=1;entryX=0.621;entryY=-0.058;entryDx=0;entryDy=0;entryPerimeter=0;" edge="1" parent="1" source="Y6cidYwezNrs-eOszlJ7-74" target="Y6cidYwezNrs-eOszlJ7-57">
          <mxGeometry relative="1" as="geometry" />
        </mxCell>
      </root>
    </mxGraphModel>
  </diagram>
</mxfile>
